<svg width="48" height="48" viewBox="0 0 48 48" fill="none" xmlns="http://www.w3.org/2000/svg">
  <path d="M8 4C6.89543 4 6 4.89543 6 6V42C6 43.1046 6.89543 44 8 44H40C41.1046 44 42 43.1046 42 42V6C42 4.89543 41.1046 4 40 4H8Z" fill="#217346"/>
  <path d="M8 4C6.89543 4 6 4.89543 6 6V42C6 43.1046 6.89543 44 8 44H40C41.1046 44 42 43.1046 42 42V6C42 4.89543 41.1046 4 40 4H8Z" fill="url(#excelGradient)"/>
  <path d="M12 12H36V16H12V12Z" fill="white"/>
  <path d="M12 20H36V24H12V20Z" fill="white"/>
  <path d="M12 28H36V32H12V28Z" fill="white"/>
  <path d="M12 36H36V40H12V36Z" fill="white"/>
  <defs>
    <linearGradient id="excelGradient" x1="0%" y1="0%" x2="100%" y2="100%">
      <stop offset="0%" style="stop-color:#217346;stop-opacity:1" />
      <stop offset="100%" style="stop-color:#1E5F3A;stop-opacity:1" />
    </linearGradient>
  </defs>
</svg> 