<svg width="48" height="48" viewBox="0 0 48 48" fill="none" xmlns="http://www.w3.org/2000/svg">
  <path d="M24 4C12.954 4 4 12.954 4 24s8.954 20 20 20 20-8.954 20-20S35.046 4 24 4z" fill="#F05032"/>
  <path d="M32.5 16.5c-.6-1.4-1.5-2.5-2.8-3.2-.3-.2-.6-.3-.9-.4-.3-.1-.6-.1-.9-.1-.3 0-.6 0-.9.1-.3.1-.6.2-.9.4-.3.2-.6.4-.8.7-.2.3-.4.6-.5.9-.1.3-.2.6-.2.9 0 .3.1.6.2.9.1.3.3.6.5.9.2.3.5.5.8.7.3.2.6.3.9.4.3.1.6.1.9.1.3 0 .6 0 .9-.1.3-.1.6-.2.9-.4.3-.2.6-.4.8-.7.2-.3.4-.6.5-.9.1-.3.2-.6.2-.9 0-.3-.1-.6-.2-.9-.1-.3-.3-.6-.5-.9z" fill="white"/>
  <path d="M24 8c-8.8 0-16 7.2-16 16s7.2 16 16 16 16-7.2 16-16-7.2-16-16-16zm0 28c-6.6 0-12-5.4-12-12s5.4-12 12-12 12 5.4 12 12-5.4 12-12 12z" fill="white"/>
</svg> 