<svg width="48" height="48" viewBox="0 0 48 48" fill="none" xmlns="http://www.w3.org/2000/svg">
  <g clip-path="url(#clip0)">
    <path d="M24 34C29.5228 34 34 29.5228 34 24C34 18.4772 29.5228 14 24 14C18.4772 14 14 18.4772 14 24C14 29.5228 18.4772 34 24 34Z" fill="#61DAFB"/>
    <path d="M24 34C29.5228 34 34 29.5228 34 24C34 18.4772 29.5228 14 24 14C18.4772 14 14 18.4772 14 24C14 29.5228 18.4772 34 24 34Z" stroke="#61DAFB" stroke-width="2"/>
    <path d="M24 14C29.5228 14 34 18.4772 34 24C34 29.5228 29.5228 34 24 34" stroke="#61DAFB" stroke-width="2" stroke-linecap="round"/>
    <path d="M24 14C18.4772 14 14 18.4772 14 24C14 29.5228 18.4772 34 24 34" stroke="#61DAFB" stroke-width="2" stroke-linecap="round"/>
    <circle cx="24" cy="24" r="3" fill="#61DAFB"/>
    <path d="M24 14C29.5228 14 34 18.4772 34 24" stroke="#61DAFB" stroke-width="2" stroke-linecap="round"/>
    <path d="M24 34C18.4772 34 14 29.5228 14 24" stroke="#61DAFB" stroke-width="2" stroke-linecap="round"/>
  </g>
  <defs>
    <clipPath id="clip0">
      <rect width="48" height="48" fill="white"/>
    </clipPath>
  </defs>
</svg> 