<svg width="48" height="48" viewBox="0 0 48 48" fill="none" xmlns="http://www.w3.org/2000/svg">
  <path d="M6 42V6c0-2.21 1.79-4 4-4h28c2.21 0 4 1.79 4 4v36c0 2.21-1.79 4-4 4H10c-2.21 0-4-1.79-4-4z" fill="#3178C6"/>
  <path d="M29.538 32.947c.692 1.194 1.444 2.467 3.037 2.467 1.274 0 2.04-.637 2.04-1.563 0-1.086-.817-1.473-2.198-2.113l-.807-.344c-2.329-.988-3.878-2.226-3.878-4.841 0-2.41 1.832-4.244 4.701-4.244 2.053 0 3.528.709 4.591 2.512l-2.514 1.607c-.553-.988-.774-1.427-1.597-1.427-.758 0-1.24.586-1.24 1.427 0 .998.48 1.386 1.816 2.017l.807.344c2.744 1.166 4.29 2.354 4.29 5.047 0 2.89-2.226 4.474-5.199 4.474-2.915 0-4.802-.872-5.719-2.513l2.514-1.607zm-11.586.105c.506.906 1.275 1.603 2.381 1.603 1.058 0 1.667-.418 1.667-1.016 0-.69-.424-.945-1.767-1.584l-.436-.198c-1.814-.815-3.009-1.976-3.009-3.857 0-2.288 1.857-3.953 4.749-3.953 2.108 0 3.6.734 4.512 1.902l-1.968 1.295c-.598-.998-1.151-1.377-1.943-1.377-1.008 0-1.648.68-1.648 1.377 0 .964.501 1.332 1.715 1.805l.436.199c2.136.906 3.295 1.976 3.295 3.857 0 2.78-2.268 4.474-5.093 4.474-2.565 0-4.235-.872-5.199-2.338l1.968-1.295z" fill="white"/>
</svg> 