<svg width="48" height="48" viewBox="0 0 48 48" fill="none" xmlns="http://www.w3.org/2000/svg">
  <g>
    <path d="M32 16C31.5 16.5 30.8 17 30 17.2C29.2 17.4 28.4 17.3 27.6 17C26.8 16.7 26.1 16.2 25.5 15.6C24.9 15 24.4 14.3 24.1 13.5C23.8 12.7 23.7 11.9 23.9 11.1C24.1 10.3 24.6 9.6 25.1 9.1C25.6 8.6 26.3 8.1 27.1 7.9C27.9 7.7 28.7 7.8 29.5 8.1C30.3 8.4 31 8.9 31.6 9.5C32.2 10.1 32.7 10.8 33 11.6C33.3 12.4 33.4 13.2 33.2 14C33 14.8 32.5 15.5 32 16Z" fill="#000000"/>
    <path d="M24 18C22.9 18 21.9 18.4 21.1 19.1C20.3 19.8 19.8 20.8 19.6 21.9C19.4 23 19.6 24.1 20.1 25.1C20.6 26.1 21.4 26.9 22.4 27.4C23.4 27.9 24.5 28.1 25.6 27.9C26.7 27.7 27.7 27.2 28.4 26.4C29.1 25.6 29.5 24.6 29.5 23.5C29.5 22.4 29.1 21.4 28.4 20.6C27.7 19.8 26.7 19.3 25.6 19.1C24.5 18.9 23.4 19.1 22.4 19.6C21.4 20.1 20.6 20.9 20.1 21.9C19.6 22.9 19.4 24 19.6 25.1C19.8 26.2 20.3 27.2 21.1 27.9C21.9 28.6 22.9 29 24 29C25.1 29 26.1 28.6 26.9 27.9C27.7 27.2 28.2 26.2 28.4 25.1C28.6 24 28.4 22.9 27.9 21.9C27.4 20.9 26.6 20.1 25.6 19.6C24.6 19.1 23.5 18.9 22.4 19.1C21.3 19.3 20.3 19.8 19.6 20.6C18.9 21.4 18.5 22.4 18.5 23.5C18.5 24.6 18.9 25.6 19.6 26.4C20.3 27.2 21.3 27.7 22.4 27.9C23.5 28.1 24.6 27.9 25.6 27.4C26.6 26.9 27.4 26.1 27.9 25.1C28.4 24.1 28.6 23 28.4 21.9C28.2 20.8 27.7 19.8 26.9 19.1C26.1 18.4 25.1 18 24 18Z" fill="#000000"/>
  </g>
</svg> 