<svg width="48" height="48" viewBox="0 0 48 48" fill="none" xmlns="http://www.w3.org/2000/svg">
  <g>
    <path d="M44.5 24.5C44.5 23.5 44.4 22.6 44.3 21.7H24V27.3H35.7C35.2 29.7 33.7 31.7 31.5 33.1V36.1H37.2C40.7 33 44.5 28.5 44.5 24.5Z" fill="#4285F4"/>
    <path d="M24 44C30.1 44 35.1 41.9 37.2 36.1L31.5 33.1C30.4 33.8 28.9 34.3 27.2 34.3C23.3 34.3 20 31.5 18.8 27.9H12.9V31.1C15.1 36.1 19.2 44 24 44Z" fill="#34A853"/>
    <path d="M18.8 27.9C18.5 27.2 18.3 26.4 18.3 25.6C18.3 24.8 18.5 24 18.8 23.3V20.1H12.9C12.3 21.3 12 22.6 12 24C12 25.4 12.3 26.7 12.9 27.9L18.8 27.9Z" fill="#FBBC05"/>
    <path d="M27.2 13.7C29.1 13.7 30.8 14.4 32.1 15.6L36.2 11.5C33.9 9.4 30.1 8 27.2 8C19.2 8 12.9 13.9 12.9 24H18.8C18.8 20.5 21.7 17.7 27.2 17.7C28.9 17.7 30.4 18.2 31.5 18.9L37.2 15.9C35.1 10.1 30.1 8 24 8C19.2 8 15.1 10.1 12.9 15.9L18.8 18.9C20 15.3 23.3 13.7 27.2 13.7Z" fill="#EA4335"/>
  </g>
</svg> 