<svg width="48" height="48" viewBox="0 0 48 48" fill="none" xmlns="http://www.w3.org/2000/svg">
  <g>
    <path d="M24 8C15.164 8 8 15.164 8 24C8 32.836 15.164 40 24 40C32.836 40 40 32.836 40 24C40 15.164 32.836 8 24 8ZM24 36C17.373 36 12 30.627 12 24C12 17.373 17.373 12 24 12C30.627 12 36 17.373 36 24C36 30.627 30.627 36 24 36Z" fill="#006699"/>
    <path d="M16 16H20V32H16V16Z" fill="#006699"/>
    <path d="M28 16H32V32H28V16Z" fill="#006699"/>
    <path d="M22 16H26V32H22V16Z" fill="#006699"/>
  </g>
</svg> 