<svg width="48" height="48" viewBox="0 0 48 48" fill="none" xmlns="http://www.w3.org/2000/svg">
  <g>
    <path d="M24 8C14.0589 8 6 16.0589 6 26C6 35.9411 14.0589 44 24 44C33.9411 44 42 35.9411 42 26C42 16.0589 33.9411 8 24 8ZM24 40C16.268 40 10 33.732 10 26C10 18.268 16.268 12 24 12C31.732 12 38 18.268 38 26C38 33.732 31.732 40 24 40Z" fill="#1877F3"/>
    <path d="M32.5 26C32.5 22.4101 29.5899 19.5 26 19.5C22.4101 19.5 19.5 22.4101 19.5 26C19.5 29.5899 22.4101 32.5 26 32.5C29.5899 32.5 32.5 29.5899 32.5 26Z" fill="#1877F3"/>
    <path d="M24 16C20.134 16 17 19.134 17 23C17 26.866 20.134 30 24 30C27.866 30 31 26.866 31 23C31 19.134 27.866 16 24 16ZM24 28C21.2386 28 19 25.7614 19 23C19 20.2386 21.2386 18 24 18C26.7614 18 29 20.2386 29 23C29 25.7614 26.7614 28 24 28Z" fill="#1877F3"/>
  </g>
</svg> 