<svg width="48" height="48" viewBox="0 0 48 48" fill="none" xmlns="http://www.w3.org/2000/svg">
  <g>
    <path d="M24 8C15.164 8 8 15.164 8 24C8 32.836 15.164 40 24 40C32.836 40 40 32.836 40 24C40 15.164 32.836 8 24 8ZM24 36C17.373 36 12 30.627 12 24C12 17.373 17.373 12 24 12C30.627 12 36 17.373 36 24C36 30.627 30.627 36 24 36Z" fill="#F80000"/>
    <path d="M16 16H32V20H16V16Z" fill="#F80000"/>
    <path d="M16 22H32V26H16V22Z" fill="#F80000"/>
    <path d="M16 28H32V32H16V28Z" fill="#F80000"/>
  </g>
</svg> 